<?xml version="1.0" encoding="UTF-8"?>
<svg version="1.1" xmlns="http://www.w3.org/2000/svg" width="500" height="500">
<path d="M0 0 C0.61066818 0.6044696 1.22133636 1.20893921 1.85050964 1.83172607 C2.55085831 2.5162384 3.25120697 3.20075073 3.97277832 3.90600586 C5.08244209 5.02310944 5.08244209 5.02310944 6.21452332 6.16278076 C6.98431015 6.92636902 7.75409698 7.68995728 8.54721069 8.47668457 C10.17008289 10.09245847 11.78783712 11.71338681 13.40080261 13.33905029 C15.87512165 15.82724401 18.3724872 18.29050993 20.87272644 20.75262451 C22.44644439 22.3253914 24.01875898 23.89956401 25.58952332 25.47528076 C26.33942032 26.21191956 27.08931732 26.94855835 27.86193848 27.70751953 C28.54652634 28.4046405 29.2311142 29.10176147 29.93644714 29.82000732 C30.54313736 30.4276593 31.14982758 31.03531128 31.77490234 31.66137695 C33.45431527 34.15539666 33.42830298 35.63117817 33.06999207 38.58465576 C31.82443492 40.87516349 30.60417011 42.81624812 29.06999207 44.89715576 C28.63428894 45.49238037 28.19858582 46.08760498 27.74967957 46.7008667 C23.8369667 51.86703745 19.55232044 56.65866619 15.06999207 61.33465576 C14.43061707 62.02599609 13.79124207 62.71733643 13.13249207 63.42962646 C5.67472117 70.94284198 -2.15882915 70.70176783 -12.21907043 70.77996826 C-15.6646405 70.77597793 -19.10962217 70.74349038 -22.55500793 70.70965576 C-24.34015917 70.69960679 -26.12531587 70.69048433 -27.91047668 70.68231201 C-32.25045724 70.66044826 -36.59017126 70.62602391 -40.93000793 70.58465576 C-42.53259891 98.13345029 -43.15250572 125.64456689 -43.17677307 153.23433304 C-43.17997588 155.6232498 -43.18707232 158.01212667 -43.19514465 160.40103149 C-43.24765655 177.89392929 -43.01106178 195.18605013 -40.93000793 212.58465576 C-34.53629426 211.0971387 -28.53936922 209.11247554 -22.53157043 206.46746826 C-21.89259827 206.18975586 -21.2536261 205.91204346 -20.59529114 205.62591553 C-19.03873894 204.94883716 -17.48416169 204.26722148 -15.93000793 203.58465576 C-11.45935412 207.88058466 -7.01351498 212.20028608 -2.58772278 216.54241943 C-1.08303002 218.01219044 0.42792065 219.47558592 1.94548035 220.93206787 C19.94855571 238.22902393 19.94855571 238.22902393 22.06999207 248.58465576 C19.00445644 257.5221484 6.91225332 262.75597926 -1.07453918 266.76434326 C-18.67321572 275.24446611 -42.74384717 281.12939095 -62.11750793 275.14715576 C-72.78064123 270.06065371 -81.47817936 259.30854297 -89.79988098 251.06488037 C-91.09861532 249.78279438 -92.40270379 248.50611025 -93.71199036 247.23480225 C-112.67793697 228.81269901 -115.70577257 209.36969008 -116.17012024 183.52351379 C-116.21394133 178.91849904 -116.2056829 174.31475266 -116.18000793 169.70965576 C-116.17723846 168.72386536 -116.17446899 167.73807495 -116.1716156 166.72241211 C-116.06688337 134.54286989 -113.76097358 102.62603968 -110.93000793 70.58465576 C-122.15000793 70.58465576 -133.37000793 70.58465576 -144.93000793 70.58465576 C-144.9195343 73.16850098 -144.90906067 75.75234619 -144.89826965 78.41448975 C-144.86463584 87.0995205 -144.84284568 95.78455471 -144.82638359 104.46963406 C-144.81609133 109.71837844 -144.80221077 114.96705432 -144.77912903 120.21575928 C-144.67279995 145.08627076 -144.89638109 169.78721015 -146.93000793 194.58465576 C-147.00815735 195.55287262 -147.08630676 196.52108948 -147.16682434 197.51864624 C-147.61628559 202.94545866 -148.1473877 208.3595189 -148.74250793 213.77215576 C-148.86698303 214.92756866 -148.86698303 214.92756866 -148.99397278 216.10632324 C-150.14187358 226.68214004 -151.45954084 237.23132046 -153.11906433 247.73983765 C-153.42192569 249.65845502 -153.71287533 251.57894079 -154.00349426 253.49945068 C-154.19580627 254.64389648 -154.38811829 255.78834229 -154.58625793 256.96746826 C-154.74932434 257.96149658 -154.91239075 258.9555249 -155.08039856 259.97967529 C-156.1117541 263.1419062 -157.35227178 264.51079867 -159.93000793 266.58465576 C-161.88337708 267.51019287 -161.88337708 267.51019287 -163.96516418 268.11199951 C-164.76172424 268.34451416 -165.5582843 268.57702881 -166.37898254 268.81658936 C-167.24144592 269.04942627 -168.1039093 269.28226318 -168.99250793 269.52215576 C-169.89557678 269.77303955 -170.79864563 270.02392334 -171.7290802 270.28240967 C-203.07305391 278.66863343 -203.07305391 278.66863343 -213.93000793 277.58465576 C-216.30354309 276.00921631 -216.30354309 276.00921631 -218.59407043 273.78387451 C-219.45419739 272.96064697 -220.31432434 272.13741943 -221.20051575 271.28924561 C-222.10124817 270.39673096 -223.00198059 269.50421631 -223.93000793 268.58465576 C-225.31591125 267.2439502 -225.31591125 267.2439502 -226.72981262 265.87615967 C-229.12500879 263.54542113 -231.50122061 261.19914918 -233.86408997 258.83587646 C-235.31949432 257.38269146 -236.78278217 255.93775135 -238.24641418 254.49285889 C-239.19091228 253.55129054 -240.13494017 252.60925024 -241.07844543 251.66668701 C-241.9155304 250.83371094 -242.75261536 250.00073486 -243.61506653 249.14251709 C-249.92363323 242.17195673 -249.92363323 242.17195673 -249.93782043 238.63934326 C-248.41828387 235.54137336 -246.63465404 232.62974998 -244.80500793 229.70965576 C-215.71104753 181.92152437 -215.10156599 125.83350874 -213.93000793 71.58465576 C-227.42907446 76.51785855 -234.86405702 85.07021858 -242.93000793 96.58465576 C-256.09996048 95.72574581 -264.30553527 87.08613406 -273.12947083 78.20184326 C-275.12924594 76.19789325 -277.16146016 74.23126974 -279.19758606 72.26434326 C-280.47898658 70.99041409 -281.75836018 69.71444213 -283.03547668 68.43621826 C-283.64360703 67.85369293 -284.25173737 67.2711676 -284.8782959 66.67098999 C-286.47478694 65.0292761 -287.79568753 63.57455931 -288.93000793 61.58465576 C-288.8553009 57.86907959 -288.8553009 57.86907959 -287.93000793 54.58465576 C-287.62965637 53.46188232 -287.32930481 52.33910889 -287.01985168 51.18231201 C-281.11478829 33.06677855 -272.64160589 13.9771281 -255.18000793 4.27215576 C-242.7204274 -1.03507615 -230.14540142 -0.85407777 -216.86408997 -0.83184814 C-214.75845357 -0.83923981 -212.65282145 -0.84794838 -210.54719543 -0.85786438 C-204.86116642 -0.88107314 -199.17524679 -0.88633065 -193.48917627 -0.88852358 C-187.5170955 -0.89421281 -181.54508444 -0.91750763 -175.57304382 -0.93911743 C-164.26178799 -0.97757029 -152.95055228 -1.00182996 -141.63924778 -1.02024209 C-121.4007006 -1.05366337 -101.16221486 -1.11165057 -80.92373931 -1.17423379 C-73.83199264 -1.19560813 -66.74026636 -1.21094489 -59.64849496 -1.22107339 C-55.22282878 -1.22813737 -50.79717712 -1.23902365 -46.371521 -1.25071526 C-44.333091 -1.25523719 -42.29465652 -1.25811245 -40.25622177 -1.25913811 C-30.10906304 -1.26491761 -20.06058345 -1.38776732 -9.94984245 -2.29979515 C-6.11144927 -2.44666506 -3.14024283 -2.30285302 0 0 Z M-22.91574097 5.60916138 C-23.79797488 5.6118338 -24.6802088 5.61450622 -25.58917707 5.61725962 C-28.5335984 5.62625803 -31.47801902 5.635465 -34.42243958 5.64471436 C-35.45610783 5.64793386 -36.48977608 5.65115337 -37.55476761 5.65447044 C-57.92301746 5.71821008 -78.2912217 5.79305819 -98.65941715 5.87218285 C-111.62159106 5.92229388 -124.58375849 5.96875999 -137.54597473 6.00653076 C-148.8697871 6.03953527 -160.19355115 6.07940426 -171.51731008 6.12744582 C-177.50361402 6.15260937 -183.48988636 6.17442127 -189.47622871 6.18799973 C-195.11268942 6.20089592 -200.74904073 6.22303078 -206.38544083 6.25203896 C-208.44524002 6.26105304 -210.50505678 6.26679041 -212.56487465 6.2688694 C-240.16160901 6.08621866 -240.16160901 6.08621866 -263.32453918 19.63153076 C-271.27577769 28.64372913 -279.93000793 44.26311812 -279.93000793 56.58465576 C-277.45090955 56.20935515 -276.23214535 55.92594338 -274.54328918 54.01824951 C-274.11403137 53.35953857 -273.68477356 52.70082764 -273.24250793 52.02215576 C-266.05041884 42.01421133 -257.34077206 36.27922955 -245.22688293 33.83856201 C-233.08520454 31.98059869 -220.1656032 31.71631378 -207.93000793 32.58465576 C-205.97087213 34.54379157 -206.76637754 38.33130347 -206.76203918 41.00653076 C-206.75784973 41.79311569 -206.75366028 42.57970062 -206.74934387 43.39012146 C-206.73935522 46.03834744 -206.73960265 48.68641355 -206.74250793 51.33465576 C-206.74277985 52.25014191 -206.74305176 53.16562805 -206.74333191 54.1088562 C-206.82844557 117.37282055 -207.47278272 181.90597397 -240.93000793 237.58465576 C-237.80210166 238.56552298 -235.57432587 238.55960518 -232.35969543 237.98309326 C-231.47128967 237.82502197 -230.58288391 237.66695068 -229.66755676 237.50408936 C-228.72291565 237.32442627 -227.77827454 237.14476318 -226.80500793 236.95965576 C-225.83394104 236.77870361 -224.86287415 236.59775146 -223.86238098 236.41131592 C-217.41973492 235.16916997 -211.06706482 233.70549016 -204.74250793 231.95965576 C-203.99533508 231.75388916 -203.24816223 231.54812256 -202.47834778 231.33612061 C-199.22396155 230.39772065 -196.77135385 229.47888637 -193.93000793 227.58465576 C-193.1093923 224.5954931 -192.50394969 221.75660713 -191.99250793 218.70965576 C-191.74428284 217.28302612 -191.74428284 217.28302612 -191.49104309 215.82757568 C-183.51700866 167.65644117 -182.75212135 118.84335621 -182.86750793 70.14715576 C-182.88813293 57.75153076 -182.90875793 45.35590576 -182.93000793 32.58465576 C-155.87000793 32.58465576 -128.81000793 32.58465576 -100.93000793 32.58465576 C-102.06970467 50.8198036 -102.06970467 50.8198036 -102.83235168 58.43621826 C-103.0018565 60.18917532 -103.17077804 61.94218885 -103.33918762 63.69525146 C-103.46891968 65.04014145 -103.46891968 65.04014145 -103.60127258 66.41220093 C-106.73695032 99.36018019 -108.1152495 132.01597282 -108.17498779 165.10885239 C-108.17996172 167.49993735 -108.18788169 169.89099871 -108.19624329 172.28207397 C-108.20816822 176.10599344 -108.20795462 179.92974792 -108.19889832 183.75367355 C-108.19676592 185.17128765 -108.19774624 186.58891079 -108.20225525 188.00651932 C-108.43582116 211.12694258 -108.43582116 211.12694258 -99.43000793 231.64715576 C-98.60500793 232.28653076 -97.78000793 232.92590576 -96.93000793 233.58465576 C-96.32672668 234.09383545 -95.72344543 234.60301514 -95.10188293 235.12762451 C-85.77149834 241.3870372 -70.83678633 238.69937423 -60.32844543 236.79559326 C-44.70008973 233.69517146 -30.30638747 227.84963842 -17.93000793 217.58465576 C-18.26000793 216.26465576 -18.59000793 214.94465576 -18.93000793 213.58465576 C-19.74791809 213.85729248 -19.74791809 213.85729248 -20.58235168 214.13543701 C-22.17063313 214.66486416 -23.75919555 215.19344881 -25.34797668 215.72137451 C-27.01936353 216.28018918 -28.68879065 216.84491457 -30.35578918 217.41668701 C-31.12278137 217.6783667 -31.88977356 217.94004639 -32.68000793 218.20965576 C-33.37610168 218.44942139 -34.07219543 218.68918701 -34.78938293 218.93621826 C-43.6100608 221.60817543 -54.95885223 222.45458546 -63.55500793 218.64715576 C-71.6972529 213.74268271 -74.48868855 205.95123997 -77.07063293 197.18621826 C-86.84993796 156.20203992 -82.52213338 110.13776592 -80.99250793 68.45965576 C-80.94912292 67.27612518 -80.90573792 66.0925946 -80.86103821 64.87319946 C-80.73447022 61.50334145 -80.60164618 58.13381323 -80.46516418 54.76434326 C-80.42655777 53.778004 -80.38795135 52.79166473 -80.34817505 51.7754364 C-79.59922401 34.25387184 -79.59922401 34.25387184 -77.93000793 32.58465576 C-76.58622153 32.47308713 -75.23680794 32.42798399 -73.88850403 32.41107178 C-73.03026031 32.39758194 -72.1720166 32.3840921 -71.2877655 32.37019348 C-70.35243988 32.3597551 -69.41711426 32.34931671 -68.45344543 32.33856201 C-66.48338926 32.30560253 -64.51333728 32.27239126 -62.54328918 32.23895264 C-59.42955135 32.19167086 -56.31582791 32.14729282 -53.20198059 32.10784912 C-50.20227887 32.06794549 -47.202943 32.01642136 -44.20344543 31.96356201 C-43.2802652 31.95514786 -42.35708496 31.9467337 -41.40592957 31.93806458 C-32.6322483 31.77160447 -26.94318946 30.325406 -20.41828918 24.21746826 C-11.67941037 15.75606498 -11.67941037 15.75606498 -6.93000793 5.58465576 C-12.25864203 5.58187828 -17.58713429 5.59262908 -22.91574097 5.60916138 Z " fill="#A0A0A0" transform="translate(378.9300079345703,107.41534423828125)"/>
<path d="M0 0 C0.66 0.99 1.32 1.98 2 3 C2.53625 3.680625 3.0725 4.36125 3.625 5.0625 C5 7 5 7 5 9 C16.79332974 15.11505986 28.23186935 14.15080041 41.03125 12.47265625 C44.08907152 12.10848656 46.93253563 11.89653394 50 12 C41.39654119 19.41129362 23.83101971 16.09893427 13 16 C12.67 16.99 12.34 17.98 12 19 C11.34 19 10.68 19 10 19 C10.33 20.32 10.66 21.64 11 23 C7.12344376 19.83546429 3.47235378 16.60483254 0.0625 12.9375 C-0.52402344 12.30714844 -1.11054688 11.67679687 -1.71484375 11.02734375 C-3.30127531 8.5247359 -3.2470266 6.90886419 -3 4 C-2.34 4 -1.68 4 -1 4 C-0.67 2.68 -0.34 1.36 0 0 Z " fill="#9A9A9A" transform="translate(275,331)"/>
<path d="M0 0 C0.66 0.99 1.32 1.98 2 3 C2.53625 3.680625 3.0725 4.36125 3.625 5.0625 C5 7 5 7 5 9 C6.32 9.66 7.64 10.32 9 11 C7.68 11.33 6.36 11.66 5 12 C5 12.99 5 13.98 5 15 C1.94602429 14.67278832 0.96883223 13.96883223 -1.25 11.75 C-3.13357065 8.79010327 -3.39141851 7.42491198 -3 4 C-2.34 4 -1.68 4 -1 4 C-0.67 2.68 -0.34 1.36 0 0 Z " fill="#969696" transform="translate(275,331)"/>
<path d="M0 0 C-7.10961103 6.23972921 -20.05294086 4.28969307 -29 4 C-32.34580775 3.7508898 -35.67157438 3.42074906 -39 3 C-39 2.34 -39 1.68 -39 1 C-37.58074219 1.14308594 -37.58074219 1.14308594 -36.1328125 1.2890625 C-26.82051079 2.10965028 -18.12248724 1.71013859 -8.86328125 0.47265625 C-5.84073077 0.10285988 -3.03369604 -0.10172156 0 0 Z " fill="#7B7B7B" transform="translate(325,343)"/>
<path d="M0 0 C-1.84258246 1.92863714 -3.34878977 2.92009594 -6.01757812 3.24755859 C-8.43427459 3.29505495 -10.83398212 3.26111304 -13.25 3.1875 C-14.09046875 3.17396484 -14.9309375 3.16042969 -15.796875 3.14648438 C-17.86485938 3.11123464 -19.93251271 3.0574302 -22 3 C-22 2.67 -22 2.34 -22 2 C-19.27123692 1.66304138 -16.54206837 1.33031571 -13.8125 1 C-13.04357422 0.90460938 -12.27464844 0.80921875 -11.48242188 0.7109375 C-7.63071189 0.24807106 -3.88829149 -0.12467468 0 0 Z " fill="#686868" transform="translate(325,343)"/>
<path d="M0 0 C0.33 0.99 0.66 1.98 1 3 C-0.375 4.5 -0.375 4.5 -2 6 C-2.66 6 -3.32 6 -4 6 C-4.66 7.32 -5.32 8.64 -6 10 C-6.99 10 -7.98 10 -9 10 C-6.03 6.7 -3.06 3.4 0 0 Z " fill="#808080" transform="translate(366,122)"/>
<path d="M0 0 C1.485 0.99 1.485 0.99 3 2 C3 2.66 3 3.32 3 4 C4.32 4.66 5.64 5.32 7 6 C4.16032769 6 1.76264289 5.59732819 -1 5 C-0.67 3.35 -0.34 1.7 0 0 Z " fill="#828282" transform="translate(277,336)"/>
<path d="M0 0 C0.66 1.32 1.32 2.64 2 4 C0.68 5.32 -0.64 6.64 -2 8 C-2.6875 6.25 -2.6875 6.25 -3 4 C-1.5625 1.75 -1.5625 1.75 0 0 Z " fill="#959595" transform="translate(405,149)"/>
</svg>
